<mxfile host="app.diagrams.net" modified="2024-07-08T02:38:58.497Z" agent="Mozilla/5.0 (Macintosh; Intel Mac OS X 10_15_7) AppleWebKit/537.36 (KHTML, like Gecko) Chrome/126.0.0.0 Safari/537.36" version="24.4.4" etag="W-PtvVT3CUASQCiXcNOe" type="github">
  <diagram name="Trang-1" id="gUSEK9HKp-Kbn271MHY7">
    <mxGraphModel>
      <root>
        <mxCell id="0" />
        <mxCell id="1" parent="0" />
      </root>
    </mxGraphModel>
  </diagram>
</mxfile>
